<svg width="25" height="25" viewBox="0 0 25 25" fill="none" xmlns="http://www.w3.org/2000/svg">
<path d="M23.6545 6.30497C23.8151 5.74157 23.6545 5.3269 22.8819 5.3269H20.3255C19.6745 5.3269 19.375 5.68297 19.2144 6.07961C19.2144 6.07961 17.9123 9.37438 16.072 11.5108C15.4774 12.1283 15.204 12.3266 14.8785 12.3266C14.7179 12.3266 14.4705 12.1283 14.4705 11.5649V6.30497C14.4705 5.62889 14.2882 5.3269 13.75 5.3269H9.73089C9.32291 5.3269 9.07985 5.64241 9.07985 5.93538C9.07985 6.5754 9.99999 6.72414 10.0955 8.52702V12.4393C10.0955 13.2957 9.94791 13.4534 9.62238 13.4534C8.75433 13.4534 6.64496 10.1451 5.39496 6.35906C5.14322 5.62438 4.89582 5.3269 4.24044 5.3269H1.68402C0.954851 5.3269 0.807281 5.68297 0.807281 6.07961C0.807281 6.78273 1.67534 10.2758 4.84808 14.8912C6.9618 18.0417 9.93922 19.75 12.6476 19.75C14.2752 19.75 14.4748 19.3714 14.4748 18.7178C14.4748 15.707 14.3272 15.4231 15.1432 15.4231C15.5208 15.4231 16.1719 15.6214 17.691 17.1403C19.4271 18.9432 19.7135 19.75 20.6858 19.75H23.2422C23.9713 19.75 24.3403 19.3714 24.1276 18.6232C23.6415 17.0502 20.3559 13.814 20.2083 13.5976C19.8307 13.0928 19.9392 12.8675 20.2083 12.4167C20.2127 12.4122 23.3333 7.85094 23.6545 6.30497V6.30497Z" fill="#22272A" fill-opacity="0.75"/>
</svg>
